<?xml version="1.0" encoding="utf-8"?>
<!-- Generator: Adobe Illustrator 16.0.0, SVG Export Plug-In . SVG Version: 6.00 Build 0)  -->
<!DOCTYPE svg PUBLIC "-//W3C//DTD SVG 1.1//EN" "http://www.w3.org/Graphics/SVG/1.1/DTD/svg11.dtd">
<svg version="1.1" id="Ebene_1" xmlns="http://www.w3.org/2000/svg" xmlns:xlink="http://www.w3.org/1999/xlink" x="0px" y="0px"
	 width="300px" height="100px" viewBox="0 0 300 100" enable-background="new 0 0 300 100" xml:space="preserve">
<g>
	<path fill="#202020" d="M95.898,56.803v8.473h-5.547V40.352h5.547v1.671c0.875-0.987,2.812-2.127,5.281-2.127
		c5.168,0,8.436,3.799,8.436,9.498c0,5.509-3.381,9.499-8.436,9.499C98.977,58.893,97.076,58.17,95.898,56.803z M99.889,54.674
		c2.584,0,4.104-2.051,4.104-5.28c0-3.306-1.406-5.319-4.104-5.319c-2.469,0-4.141,2.166-4.141,5.319S97.42,54.674,99.889,54.674z"
		/>
	<path fill="#202020" d="M117.178,40.352v2.47c0.494-1.368,2.547-2.888,5.092-2.888c0.229,0,0.418,0,0.646,0.038v5.318
		c-0.607-0.151-1.291-0.228-1.785-0.228c-2.129,0-3.191,1.025-3.609,2.546c-0.191,0.684-0.268,1.52-0.268,2.431v8.396h-5.547V40.352
		H117.178z"/>
	<path fill="#202020" d="M133.1,39.896c5.699,0,9.613,3.457,9.613,9.573c0,6.117-3.914,9.424-9.613,9.424
		c-5.697,0-9.574-3.307-9.574-9.424C123.525,43.353,127.402,39.896,133.1,39.896z M133.1,54.674c2.547,0,3.99-1.975,3.99-5.28
		c0-3.381-1.406-5.319-3.99-5.319c-2.582,0-3.951,1.977-3.951,5.319S130.555,54.674,133.1,54.674z"/>
	<path fill="#202020" d="M155.975,58.512c-0.76,0.152-2.014,0.305-3.342,0.305c-2.166,0-4.445-0.305-5.396-1.559
		c-0.684-0.912-0.76-1.898-0.76-3.723v-9.423h-3.496v-3.761h3.496v-6.155l5.547-1.102v7.257h3.951v3.761h-3.951v8.017
		c0,1.025,0.115,1.52,0.457,1.861c0.379,0.418,1.062,0.57,2.09,0.57c0.645,0,1.139-0.037,1.404-0.076V58.512z"/>
	<path fill="#202020" d="M166.498,39.896c5.699,0,9.613,3.457,9.613,9.573c0,6.117-3.914,9.424-9.613,9.424
		s-9.574-3.307-9.574-9.424C156.924,43.353,160.799,39.896,166.498,39.896z M166.498,54.674c2.545,0,3.99-1.975,3.99-5.28
		c0-3.381-1.406-5.319-3.99-5.319s-3.951,1.977-3.951,5.319S163.953,54.674,166.498,54.674z"/>
	<path fill="#202020" d="M189.701,58.512c-0.76,0.152-2.014,0.305-3.342,0.305c-2.166,0-4.445-0.305-5.396-1.559
		c-0.684-0.912-0.76-1.898-0.76-3.723v-9.423h-3.496v-3.761h3.496v-6.155l5.547-1.102v7.257h3.951v3.761h-3.951v8.017
		c0,1.025,0.115,1.52,0.457,1.861c0.379,0.418,1.062,0.57,2.09,0.57c0.645,0,1.139-0.037,1.404-0.076V58.512z"/>
	<path fill="#202020" d="M209.574,40.352l-6.23,19.566c-0.607,1.9-1.141,3.154-1.9,3.951c-0.912,0.988-2.203,1.559-5.357,1.559
		c-1.33,0-2.127-0.039-3.381-0.152v-4.293c0.76,0.037,1.141,0.037,1.672,0.037c1.33,0,2.926,0.039,2.926-1.52
		c0-0.684-0.305-1.33-0.57-2.203l-5.51-16.945h5.814l2.582,9.65c0.457,1.709,0.912,3.875,0.912,3.875h0.039
		c0,0,0.418-2.242,0.836-3.875l2.469-9.65H209.574z"/>
	<path fill="#202020" d="M216.719,56.803v8.473h-5.547V40.352h5.547v1.671c0.875-0.987,2.812-2.127,5.281-2.127
		c5.168,0,8.436,3.799,8.436,9.498c0,5.509-3.381,9.499-8.436,9.499C219.797,58.893,217.896,58.17,216.719,56.803z M220.709,54.674
		c2.584,0,4.104-2.051,4.104-5.28c0-3.306-1.406-5.319-4.104-5.319c-2.469,0-4.141,2.166-4.141,5.319S218.24,54.674,220.709,54.674z
		"/>
	<path fill="#202020" d="M250.082,54.598c-1.064,1.521-3.686,4.295-8.664,4.295c-5.318,0-9.385-3.496-9.385-9.575
		c0-5.661,3.877-9.422,9.271-9.422c5.965,0,9.004,4.293,9.004,9.802c0,0.381,0,0.799-0.037,1.141h-12.881
		c0.189,1.975,1.635,3.686,4.369,3.686c2.432,0,3.877-1.445,4.484-2.508L250.082,54.598z M237.391,47.267h7.561
		c-0.113-2.09-1.443-3.534-3.686-3.534C239.102,43.732,237.467,45.366,237.391,47.267z"/>
	<path fill="#202020" d="M257.797,40.352v2.47c0.494-1.368,2.545-2.888,5.092-2.888c0.227,0,0.418,0,0.645,0.038v5.318
		c-0.607-0.151-1.291-0.228-1.785-0.228c-2.127,0-3.191,1.025-3.609,2.546c-0.189,0.684-0.266,1.52-0.266,2.431v8.396h-5.547V40.352
		H257.797z"/>
	<path fill="#202020" d="M61.119,24.443c0-7.224,1.35-11.199,1.35-11.199s-26.002,4.583-26.002,31.471
		c0,12.936,10.17,21.059,14.896,27.898c4.727,6.842,4.139,14.143,4.139,14.143s14.186-2.848,14.186-26.371
		C69.688,46.206,61.119,33.672,61.119,24.443z M53.076,42.244c-3.842,1.121-5.363,5.577-5.363,5.577s-1.129-2.396-2.461-3.75
		c-1.412-1.435-3.203-2.079-3.203-2.079c0.957-11.431,7.883-17.443,13.602-20.481c-0.045,0.917-0.07,1.892-0.07,2.924
		c0,5.074,1.904,10.402,3.92,16.043c0.18,0.503,0.357,1.009,0.537,1.515C60.037,41.992,57.059,41.082,53.076,42.244z"/>
</g>
</svg>
