<?xml version="1.0" encoding="utf-8"?>
<!-- Generator: Adobe Illustrator 16.0.0, SVG Export Plug-In . SVG Version: 6.00 Build 0)  -->
<!DOCTYPE svg PUBLIC "-//W3C//DTD SVG 1.1//EN" "http://www.w3.org/Graphics/SVG/1.1/DTD/svg11.dtd">
<svg version="1.1" id="Ebene_1" xmlns="http://www.w3.org/2000/svg" xmlns:xlink="http://www.w3.org/1999/xlink" x="0px" y="0px"
	 width="300px" height="100px" viewBox="0 0 300 100" enable-background="new 0 0 300 100" xml:space="preserve">
<g>
	<g>
		<path fill="#202020" d="M63.344,80.832c-2.814,0.814-5.783,1.258-8.855,1.258c-17.694,0-32.09-14.395-32.09-32.089
			c0-17.695,14.396-32.091,32.09-32.091c3.105,0,6.105,0.455,8.947,1.285l2.195-5.083c-3.523-1.096-7.26-1.702-11.143-1.702
			c-20.762,0-37.59,16.828-37.59,37.591S33.727,87.59,54.489,87.59c3.844,0,7.544-0.596,11.035-1.67L63.344,80.832z"/>
		<circle fill="#202020" cx="54.489" cy="50" r="23"/>
		<text transform="matrix(1 0 0 1 108.6099 61.3472)"><tspan x="0" y="0" fill="#202020" font-family="'Theinhardt-Bd'" font-size="38">li</tspan><tspan x="19.341" y="0" fill="#202020" font-family="'Theinhardt-Bd'" font-size="38" letter-spacing="-1">g</tspan><tspan x="40.545" y="0" fill="#202020" font-family="'Theinhardt-Bd'" font-size="38">ht</tspan><tspan x="74.668" y="0" fill="#202020" font-family="'Theinhardt-Bd'" font-size="38" letter-spacing="-1">h</tspan><tspan x="95.111" y="0" fill="#202020" font-family="'Theinhardt-Bd'" font-size="38">o</tspan><tspan x="115.896" y="0" fill="#202020" font-family="'Theinhardt-Bd'" font-size="38" letter-spacing="-1">u</tspan><tspan x="136.112" y="0" fill="#202020" font-family="'Theinhardt-Bd'" font-size="38">s</tspan><tspan x="153.935" y="0" fill="#202020" font-family="'Theinhardt-Bd'" font-size="38">e</tspan></text>
		<path fill="#202020" d="M80.28,22.638l-4.082,3.74c1.35,1.242,2.591,2.601,3.713,4.056l4.084-3.743
			C82.856,25.251,81.614,23.896,80.28,22.638z"/>
		<path fill="#202020" d="M86.575,50c0,0.928-0.049,1.844-0.125,2.75h5.539c0.066-0.908,0.111-1.822,0.111-2.749
			c0-0.926-0.045-1.842-0.111-2.751H86.45C86.526,48.157,86.575,49.072,86.575,50z"/>
	</g>
	<path fill="#202020" d="M79.911,69.566c-1.123,1.455-2.363,2.812-3.715,4.055l4.083,3.742c1.335-1.26,2.577-2.613,3.716-4.055
		L79.911,69.566z"/>
</g>
</svg>
