<?xml version="1.0" encoding="utf-8"?>
<!-- Generator: Adobe Illustrator 18.1.1, SVG Export Plug-In . SVG Version: 6.00 Build 0)  -->
<!DOCTYPE svg PUBLIC "-//W3C//DTD SVG 1.1//EN" "http://www.w3.org/Graphics/SVG/1.1/DTD/svg11.dtd">
<svg version="1.1" id="Layer_1" xmlns:sketch="http://www.bohemiancoding.com/sketch/ns"
	 xmlns="http://www.w3.org/2000/svg" xmlns:xlink="http://www.w3.org/1999/xlink" x="0px" y="0px" viewBox="0 0 150 150"
	 enable-background="new 0 0 150 150" xml:space="preserve">
<title>Artboard 2</title>
<desc>Created with Sketch.</desc>
<path id="phone-2" sketch:type="MSShapeGroup" fill="none" stroke="#15BC72" stroke-width="2" d="M55.3,30h39.5
	c2.6,0,4.8,2.1,4.8,4.7v80.6c0,2.6-2.1,4.7-4.8,4.7H55.3c-2.6,0-4.8-2.1-4.8-4.7V34.7C50.5,32.1,52.6,30,55.3,30z"/>
<g id="Place-screen-content-here-2" sketch:type="MSShapeGroup" opacity="0.31">
	<path fill="#15BC72" d="M53.7,39.5h42.7c1.7,0,3.2,1.2,3.2,2.7v61.6c0,1.5-1.4,2.7-3.2,2.7H53.7c-1.7,0-3.2-1.2-3.2-2.7V42.2
		C50.5,40.7,51.9,39.5,53.7,39.5z"/>
</g>
<g id="Place-screen-content-here-2_1_" sketch:type="MSShapeGroup">
	<path fill="#15BC72" d="M71.1,35h7.8c0.3,0,0.6,0,0.6,0.1v1.8c0,0-0.3,0.1-0.6,0.1h-7.8c-0.3,0-0.6,0-0.6-0.1v-1.8
		C70.5,35,70.8,35,71.1,35z"/>
</g>
<g id="Oval-35" sketch:type="MSShapeGroup">
	<path fill="#15BC72" d="M75,107.9c-2.3,0-4.1,1.8-4.1,4s1.8,4,4.1,4s4.1-1.8,4.1-4S77.3,107.9,75,107.9L75,107.9z"/>
</g>
</svg>
