<?xml version="1.0" encoding="utf-8"?>
<!-- Generator: Adobe Illustrator 18.1.1, SVG Export Plug-In . SVG Version: 6.00 Build 0)  -->
<!DOCTYPE svg PUBLIC "-//W3C//DTD SVG 1.1//EN" "http://www.w3.org/Graphics/SVG/1.1/DTD/svg11.dtd">
<svg version="1.1" id="Layer_1" xmlns="http://www.w3.org/2000/svg" xmlns:xlink="http://www.w3.org/1999/xlink" x="0px" y="0px"
	 viewBox="0 0 804 68.8" enable-background="new 0 0 804 68.8" xml:space="preserve">
<g opacity="0.3">
	<path fill-rule="evenodd" clip-rule="evenodd" fill="#373E48" d="M34.5,35.9c0,3.2-3,5.3-5.9,5.3h-9.7V22.2h8.9
		c3.4,0,5.9,1.7,5.9,5.2c0,3-2.6,3.9-2.6,3.9C31.1,31.4,34.5,32.1,34.5,35.9 M28.8,27.9c0-1.1-0.7-1.8-1.8-1.8h-3.5v3.6h3.4
		C28.2,29.7,28.8,28.8,28.8,27.9 M29.5,35.4c0-1.1-0.8-1.9-2.5-1.9h-3.4v3.7H27C28.5,37.3,29.5,36.8,29.5,35.4"/>
	<path fill-rule="evenodd" clip-rule="evenodd" fill="#373E48" d="M53.8,31.7c0,5.6-3.2,10-8.8,10c-5.5,0-8.8-4.4-8.8-10
		c0-5.6,3.2-10,8.8-10C50.6,21.7,53.8,26.1,53.8,31.7 M49.1,31.7c0-3-1.4-5.4-4.1-5.4c-2.7,0-4.1,2.4-4.1,5.4c0,3,1.3,5.4,4.1,5.4
		C47.8,37.1,49.1,34.7,49.1,31.7"/>
	<path fill-rule="evenodd" clip-rule="evenodd" fill="#373E48" d="M70.2,35.5c0,4.2-3.8,6.2-7.4,6.2c-4.1,0-6.3-1.6-7.9-3.6l3-3
		c1.3,1.6,3,2.5,4.8,2.5c1.5,0,2.6-0.8,2.6-1.9c0-1.2-0.9-1.6-3.4-2.1l-0.7-0.1c-3-0.6-5.5-2.3-5.5-5.7c0-3.7,3-6,7.1-6
		c3.4,0,5.6,1.5,7,3l-3,2.9c-0.9-1-2.3-1.8-3.9-1.8c-1.1,0-2.3,0.5-2.3,1.8c0,1.2,1.3,1.6,2.9,1.9l0.7,0.1
		C66.9,30.2,70.2,31.1,70.2,35.5"/>
	<path fill-rule="evenodd" clip-rule="evenodd" fill="#373E48" d="M88.3,37.5c-2,2.8-3.8,4.1-7.5,4.1c-5.4,0-8.8-4.4-8.8-10.1
		c0-5.4,3.1-9.9,8.9-9.9c3.2,0,5.4,1.2,7.3,4.1l-3.9,2.6c-0.8-1.4-1.8-2.1-3.5-2.1c-2.1,0-4.2,1.9-4.2,5.3c0,3.8,2.2,5.5,4.3,5.5
		c1.8,0,2.7-0.9,3.4-2.2L88.3,37.5"/>
	<polygon fill-rule="evenodd" clip-rule="evenodd" fill="#373E48" points="106.2,41.2 101.2,41.2 101.2,33.7 95.4,33.7 95.4,41.2 
		90.4,41.2 90.4,22.2 95.4,22.2 95.4,29.2 101.2,29.2 101.2,22.2 106.2,22.2 	"/>
</g>
<g opacity="0.3">
	<path id="path2466" fill="#373E48" d="M169.2,21.7l-7.7,20h1.3l7.7-20H169.2z M190.8,21.7l-7.6,20h1.3l7.6-20H190.8z M215.8,21.7
		l-7.6,20h1.3l7.6-20H215.8z M176.8,23.5c-3.1,0-5.2,1.9-5.2,4.6c0,1,0.4,1.9,1,2.6c0.6,0.7,1.4,1,2.8,1.4l1.6,0.5
		c1.9,0.6,2.8,1.5,2.8,2.8c0,0.9-0.4,1.6-1.1,2.2c-0.6,0.5-1.3,0.7-2.4,0.7c-1.6,0-2.9-0.4-4.3-1.4l-0.9,1.6c1.6,1,3.2,1.5,5.2,1.5
		c1.5,0,2.5-0.3,3.6-1c1.4-0.9,2.2-2.4,2.2-3.9c0-1-0.4-2.1-1.1-2.8c-0.7-0.8-1.4-1.2-2.8-1.6l-1.8-0.6c-1.8-0.6-2.5-1.3-2.5-2.5
		c0-1.5,1.1-2.5,3-2.5c1.6,0,2.5,0.5,3.9,1.4l0.9-1.5C180.2,24,178.6,23.5,176.8,23.5z M194.8,23.8v15.9h2.1v-7.6h6.7v7.6h2.2V23.8
		h-2.2v6.5h-6.7v-6.5H194.8z M149.4,23.8v15.9h4.4c2.4,0,3-0.1,3.9-0.5c1.6-0.6,2.6-2.3,2.6-3.9c0-1.2-0.4-2.5-1.5-3.3
		c-0.5-0.4-1-0.6-1.8-0.8c1.7-0.6,2.6-1.8,2.6-3.4c0-1.7-1.1-3.1-2.8-3.7c-0.8-0.3-1.7-0.4-4.9-0.4H149.4z M151.5,25.6h2.3
		c0.8,0,1.3,0,1.7,0.2c1.1,0.3,1.8,1.1,1.8,2.4c0,0.4-0.1,0.7-0.3,1.1c-0.5,1-1.4,1.4-2.7,1.4h-2.8V25.6z M151.5,32.3h2.9
		c0.8,0,1.4,0.1,1.9,0.2c1.1,0.2,1.9,1.3,1.9,2.7c0,1.9-0.9,2.8-3.2,2.8h-3.4V32.3z"/>
</g>
<g opacity="0.3">
	<path fill="#373E48" d="M259.1,23.2h-1.4c-0.2-1.2-0.1-1.5,4-1.5h5.8c8.2,0,11.7,3.7,11.7,9.8c0,5.9-3.4,9.8-11.5,9.8H257
		c-0.1-0.3-0.1-0.7,0-1.1c3-0.2,3.6-0.4,3.6-2.3V24.4C260.6,23.3,260.3,23.2,259.1,23.2z M275.4,32c0-5.5-2.8-8.6-8.3-8.6h-2.9v14.3
		c0,1.7,0.6,2,3.3,2C272.3,39.7,275.4,38.1,275.4,32z"/>
	<path fill="#373E48" d="M292.9,21.9c0.1,0.6,0.3,1.1,0.7,2.1l6.6,15c0.3,0.7,0.6,1,2.1,1h0.7c0.2,0.8,0,1.3-0.7,1.3H293
		c-0.1-0.3-0.1-0.7,0-1.1c3.1-0.1,3.4-0.3,3.1-1.1l-1.8-4.3h-7.3l-1.2,3.1c-0.7,1.7-0.7,2.1,0.9,2.1h2.4c0.2,0.8,0,1.3-0.7,1.3h-8.1
		c-0.1-0.3-0.1-0.7,0-1.1c2.2-0.3,2.4-0.5,3.2-2.3l5.6-13.3c0.9-2.2,1.3-2.6,2.6-2.6H292.9z M293.6,33.2l-3.1-7.4l-3,7.4H293.6z"/>
	<path fill="#373E48" d="M314.1,22.3c0.1,0.3,0.1,0.8,0,1.1c-2.5,0.2-2.8,0.7-2.8,1.9v13.5c0,1,0.3,1.2,1.5,1.2h1.5
		c0.2,0.8,0.1,1.3-0.7,1.3h-8.6c-0.1-0.3-0.1-0.7,0-1.1c2.3-0.4,2.8-0.7,2.8-1.8V24.7c0-1-0.3-1.2-1.6-1.2h-1.4
		c-0.2-0.7,0-1.3,1.2-1.3H314.1z"/>
	<path fill="#373E48" d="M346.9,22.3c0.1,0.4,0.1,0.7,0,1.1c-2.6,0.2-2.8,0.6-2.7,1.4l1.4,13.9c0.1,0.9,0.5,1,2.7,1.3
		c0.1,0.8,0,1.3-0.8,1.3h-10c-0.1-0.4-0.1-0.7,0-1.1l1.5-0.1c2.4-0.1,2.8-0.5,2.6-1.8l-1.3-12.4l-6.8,14.3c-0.5,1-0.7,1.2-1.4,1.2
		l-7.8-15.5l-0.9,12.8c-0.1,1.1-0.1,1.4,2.9,1.4h1.5c0.2,0.8,0.1,1.3-0.7,1.3h-9.3c-0.1-0.4-0.1-0.7,0-1.1c3.1-0.2,3.4-0.7,3.5-1.9
		l1.2-13.4c0.1-0.9-0.1-1.2-2.9-1.3c-0.2-0.7,0-1.3,1.2-1.3h5.7l7.1,13.7l6.6-13.7H346.9z"/>
	<path fill="#373E48" d="M362.5,22.3c0.1,0.3,0.1,0.8,0,1.1c-3,0.2-3.5,0.4-3.5,2.3v12.6c0,0.9,0.5,1.2,1.3,1.2h1.8
		c2.1,0,2.4-0.1,3.6-2.7l0.8-1.8c0.8,0,1.2,0.3,0.9,1.2c-0.6,1.7-1.1,3.4-1.5,5.1h-13.9c-0.1-0.4-0.1-0.7,0-1.1
		c2.8-0.2,3.4-0.5,3.4-2.4v-13c0-1-0.4-1.2-1.6-1.2h-1.4c-0.2-0.7,0-1.3,1.2-1.3H362.5z"/>
	<path fill="#373E48" d="M385.6,22.3c0.1,1.3,0.3,2.6,0.5,3.8c0.1,0.9-0.2,1.4-1.1,1.3l-0.4-1.3c-0.5-1.7-1.1-2.2-2.6-2.2h-4.5v7.3
		h3c0.9,0,1-0.3,1.1-1l0.2-1.4h0.3c0.6,0,0.9,0.2,0.8,1.1c-0.1,1.8-0.1,3.8,0,5.6c-0.3,0.1-0.7,0.1-1,0c-0.4-2.2-0.7-2.5-1.5-2.5h-3
		v5c0,1,0.3,1.4,2.2,1.4h2.4c2.1,0,2.4-0.1,3.6-2.7l0.8-1.8c0.8,0,1.2,0.3,0.9,1.2c-0.6,1.6-1.1,3.4-1.5,5.1h-15.7
		c-0.1-0.4-0.1-0.7,0-1.1c3-0.2,3.6-0.4,3.6-2.3V24.7c0-1-0.3-1.2-1.5-1.2h-1.4c-0.1-0.7,0-1.3,1.3-1.3H385.6z"/>
	<path fill="#373E48" d="M392.7,23.5h-1.4c-0.2-0.7,0-1.3,1.2-1.4c1.4-0.1,3.1-0.1,7-0.1c5.5,0,8.5,2.6,8.5,6.5
		c0,2.4-1.5,4.3-3.8,5.3c0,0,2.1,2,3.2,2.8c3.8,3,5,3.3,7.5,3.3c0.3,1-0.5,1.7-3.5,1.7c-2.6,0-4.4-0.6-6.5-2.4c-0.9-0.8-2-2-2.7-3.3
		c-0.7-1.3-0.8-1.4-2.5-1.4h-1.9v4.2c0,0.8,0.3,1.1,1.7,1.1h1.4c0.1,0.8,0,1.3-0.8,1.3h-8.9c-0.1-0.3-0.1-0.7,0-1.1
		c2.5-0.2,3-0.5,3-2.2V24.8C394.2,23.7,393.8,23.5,392.7,23.5z M399.1,33c2.8,0,5.1-0.5,5.1-4.3c0-3.8-2.3-5-5.5-5h-1V33H399.1z"/>
</g>
<g opacity="0.3">
	<g>
		<g>
			<path fill="#373E48" d="M473.3,21.7v4h-14.6l0,4H472v4h-13.3l0,8h-5.4l0-20L473.3,21.7z"/>
			<path fill="#373E48" d="M495.9,21.7l0,4h-16l0,4h14.6l0,4l-14.7,0v4.1l16.1,0v4h-21.3V21.7L495.9,21.7z"/>
			<path fill="#373E48" d="M520,25.7l0-3.9l21.3,0v3.9h-8l0,16h-5.3l0-16H520z"/>
		</g>
	</g>
	<path fill="#373E48" d="M500,33.7c0,0-2.7,0.4-2.7-2.7c0-3.1,0-6.6,0-6.6s-0.2-2.6,2.6-2.6c2.8,0,16,0,16,0s2.7-0.2,2.7,2.7
		s0,2.6,0,2.6h-4.7h-0.6v-1.3h-10.7v4h13.3c0,0,2.7-0.3,2.7,2.7c0,3,0,6.6,0,6.6s0.1,2.6-2.7,2.6c-2.8,0-15.9,0-15.9,0
		s-2.7,0.3-2.7-2.7c0-3,0-2.6,0-2.6h5.3v1.3h10.7v-4L500,33.7z"/>
	<path fill="#373E48" d="M563.8,39c0,0,0-11.5,0-14.6s-2.7-2.7-2.7-2.7s-12.8,0-15.9,0s-2.7,2.7-2.7,2.7s0,11.7,0,14.6
		c0,2.9,2.7,2.7,2.7,2.7s12.9,0,15.9,0S563.8,39,563.8,39z M557.2,37.7c-1.5,0-8,0-8,0s-1.3,0.4-1.3-1.3c0-1.7,0-9.3,0-9.3
		s0-1.3,1.3-1.3s8,0,8,0s1.3-0.2,1.3,1.3c0,1.5,0,9.3,0,9.3S558.7,37.7,557.2,37.7z"/>
</g>
<g opacity="0.3">
	<path fill="#373E48" d="M604.9,12.3v47.8c7.9-3.3,16.7-5.1,25.9-5.1c9.2,0,18,1.8,25.9,5.1V12.3H604.9z M612.6,35
		c2.1,0,2.3-2.3,2.3-2.3h1.2v3.4h-9.3c0,0-0.3-2.6,2.9-5.7c0,0,2-2,2.4-3.7l-1.1,0c-2.4,0-2.6,2.3-2.6,2.3h-1.2v-3.4h9.1
		c0,0,0.1,2.6-2.6,5.4c0,0-2.5,2.7-2.6,3.9H612.6z M626.9,29.1h-1.2c0,0-0.2-2.3-2.3-2.3h-1.2v3.5h0.4c0.5,0,0.9-0.4,0.9-0.9v-0.4
		h1.2v3.6h-1.2v-0.4c0-0.5-0.4-0.8-0.9-0.8h-0.4V35h1.2c2.1,0,2.3-2.3,2.3-2.3h1.2v3.4h-9.5V35h0.3c0.5,0,0.9-0.4,0.9-0.8v-6.5
		c0-0.5-0.4-0.8-0.9-0.8h-0.3v-1.1h9.5V29.1z M634.2,26.8h-0.3c-0.5,0-0.9,0.4-0.9,0.8v6.5c0,0.5,0.4,0.8,0.9,0.8h0.3v1.1h-6V35h0.3
		c0.5,0,0.9-0.4,0.9-0.8v-6.5c0-0.5-0.4-0.8-0.9-0.8h-0.3v-1.1h6V26.8z M644.1,36.1h-8.7v-3.4h1.2c0,0,0.2,2.3,2.3,2.3h1.5
		c-0.1-1.2-2.6-3.9-2.6-3.9c-3.6-3.7-2.2-5.4-2.2-5.4h8.7v3.4h-1.2c0,0-0.2-2.3-2.6-2.3l-1.1,0c0.4,1.7,2.4,3.7,2.4,3.7
		C645.7,34.6,644.1,36.1,644.1,36.1z M654.3,36.1h-8.7v-3.4h1.2c0,0,0.2,2.3,2.3,2.3h1.5c-0.1-1.2-2.6-3.9-2.6-3.9
		c-3.6-3.7-2.2-5.4-2.2-5.4h8.7v3.4h-1.2c0,0-0.2-2.3-2.6-2.3l-1.1,0c0.4,1.7,2.4,3.7,2.4,3.7C655.9,34.6,654.3,36.1,654.3,36.1z"/>
	<path fill="#373E48" d="M668,36.3c-3.6,0-5.2-2.6-5.2-5.3c0-2.8,1.7-5.3,5.2-5.3c0.8,0,1.5,0.1,2.1,0.4l-0.1,1.1
		c-0.5-0.3-1.3-0.5-2-0.5c-2.8,0-3.8,2.3-3.8,4.4c0,2,1.1,4.3,3.8,4.3c0.8,0,1.4-0.2,2.1-0.4l0.1,1.1
		C669.5,36.2,668.8,36.3,668,36.3L668,36.3z"/>
	<path fill="#373E48" d="M675.5,26.8l-2.1,5.6h4.1L675.5,26.8L675.5,26.8z M678.8,36.1l-1-2.8h-4.7l-1,2.8h-1.3l4-10.3h1.4l4,10.3
		H678.8L678.8,36.1z"/>
	<path fill="#373E48" d="M684.6,26.7h-1.4v3.7h1.4c1.5,0,2.2-0.7,2.2-1.9C686.9,27.3,686,26.7,684.6,26.7L684.6,26.7z M687.6,36.1
		l-1.5-3.5c-0.3-0.7-0.6-1.3-1.5-1.3h-1.3v4.7H682V25.8h3c1.9,0,3.3,1,3.3,2.7c0,1.3-0.8,2.3-2.4,2.5c0.7,0.1,1,0.4,1.3,1l1.8,4.2
		H687.6L687.6,36.1z"/>
	<polygon fill="#373E48" points="691,36.1 691,25.8 692.3,25.8 692.3,35.2 696.2,35.2 696.2,36.1 691,36.1 	"/>
	<polygon fill="#373E48" points="701.3,36.1 701.3,35.1 706.5,26.7 701.5,26.7 701.5,25.8 707.9,25.8 707.9,26.8 702.7,35.2 
		708,35.2 708,36.1 701.3,36.1 	"/>
	<polygon fill="#373E48" points="710.1,36.1 710.1,25.8 715.5,25.8 715.5,26.7 711.3,26.7 711.3,30.3 715.2,30.3 715.2,31.2 
		711.3,31.2 711.3,35.2 715.7,35.2 715.7,36.1 710.1,36.1 	"/>
	<polygon fill="#373E48" points="718,36.1 718,25.8 719.3,25.8 719.3,36.1 718,36.1 	"/>
	<path fill="#373E48" d="M724.3,36.3c-0.8,0-1.9-0.2-2.5-0.5l0.1-1.2c0.8,0.6,1.9,0.7,2.3,0.7c1.9,0,2.2-1.3,2.2-1.8
		c0-1.1-0.7-1.5-1.7-2.1l-1.1-0.7c-1.2-0.7-1.8-1.4-1.8-2.6c0-2.3,2.6-2.6,3.4-2.6c1,0,1.8,0.2,2.2,0.3l-0.1,1.1
		c-0.5-0.3-1.1-0.5-2-0.5c-0.8,0-2,0.4-2,1.5c0,0.9,0.5,1.3,1.4,1.8l1.1,0.7c1.6,1,2.1,1.5,2.1,2.8
		C727.7,35.1,726.3,36.3,724.3,36.3L724.3,36.3z"/>
	<path fill="#373E48" d="M732,36.3c-0.8,0-1.9-0.2-2.5-0.5l0.1-1.2c0.8,0.6,1.9,0.7,2.3,0.7c1.9,0,2.2-1.3,2.2-1.8
		c0-1.1-0.7-1.5-1.7-2.1l-1.1-0.7c-1.2-0.7-1.8-1.4-1.8-2.6c0-2.3,2.6-2.6,3.4-2.6c1,0,1.8,0.2,2.2,0.3l-0.1,1.1
		c-0.5-0.3-1.1-0.5-2-0.5c-0.8,0-2,0.4-2,1.5c0,0.9,0.5,1.3,1.4,1.8l1.1,0.7c1.6,1,2.1,1.5,2.1,2.8C735.4,35.1,734,36.3,732,36.3
		L732,36.3z"/>
	<polygon fill="#373E48" points="745.7,36.1 744.3,36.1 740.7,25.8 742.1,25.8 745,34.9 747.9,25.8 749.2,25.8 745.7,36.1 	"/>
	<polygon fill="#373E48" points="750.9,36.1 750.9,25.8 752.2,25.8 752.2,36.1 750.9,36.1 	"/>
	<path fill="#373E48" d="M757.2,36.3c-0.8,0-1.9-0.2-2.5-0.5l0.1-1.2c0.8,0.6,1.9,0.7,2.3,0.7c1.9,0,2.2-1.3,2.2-1.8
		c0-1.1-0.7-1.5-1.7-2.1l-1.1-0.7c-1.2-0.7-1.8-1.4-1.8-2.6c0-2.3,2.6-2.6,3.4-2.6c1,0,1.8,0.2,2.2,0.3l-0.1,1.1
		c-0.5-0.3-1.1-0.5-2-0.5c-0.8,0-2,0.4-2,1.5c0,0.9,0.5,1.3,1.4,1.8l1.1,0.7c1.6,1,2.1,1.5,2.1,2.8
		C760.6,35.1,759.1,36.3,757.2,36.3L757.2,36.3z"/>
	<polygon fill="#373E48" points="763,36.1 763,25.8 764.3,25.8 764.3,36.1 763,36.1 	"/>
	<path fill="#373E48" d="M771.1,26.6c-2.6,0-3,2.7-3,4.4c0,1.8,0.4,4.4,3,4.4c2.6,0,3-2.7,3-4.4C774.1,29.2,773.8,26.6,771.1,26.6
		L771.1,26.6z M771.1,36.3c-3.6,0-4.3-2.9-4.3-5.3c0-2.4,1-5.3,4.3-5.3c3.6,0,4.3,2.9,4.3,5.3C775.5,33.3,774.5,36.3,771.1,36.3
		L771.1,36.3z"/>
	<polygon fill="#373E48" points="783.9,36.1 779.1,27.1 779.1,36.1 777.9,36.1 777.9,25.8 779.8,25.8 784.5,34.8 784.5,25.8 
		785.7,25.8 785.7,36.1 783.9,36.1 	"/>
</g>
</svg>
