<?xml version="1.0" encoding="utf-8"?>
<!-- Generator: Adobe Illustrator 16.0.0, SVG Export Plug-In . SVG Version: 6.00 Build 0)  -->
<!DOCTYPE svg PUBLIC "-//W3C//DTD SVG 1.1//EN" "http://www.w3.org/Graphics/SVG/1.1/DTD/svg11.dtd">
<svg version="1.1" id="Ebene_1" xmlns="http://www.w3.org/2000/svg" xmlns:xlink="http://www.w3.org/1999/xlink" x="0px" y="0px"
	 width="50px" height="50px" viewBox="0 0 50 50" enable-background="new 0 0 50 50" xml:space="preserve">
<rect x="25" fill="#00AB5D" width="25" height="50"/>
<rect opacity="0.3" fill="#333333" enable-background="new    " width="25" height="50"/>
<path fill="#FFFFFF" d="M16.854,24.379l-3.248-2.573c-0.433-0.343-0.784-0.173-0.784,0.379V23.5h-4c-0.552,0-1,0.448-1,1v1
	c0,0.553,0.448,1,1,1h4v1.314c0,0.553,0.351,0.722,0.784,0.379l3.248-2.572C17.286,25.278,17.286,24.722,16.854,24.379z"/>
<path fill="#FFFFFF" d="M41.853,24.379l-3.247-2.573c-0.433-0.343-0.784-0.173-0.784,0.379V23.5h-4c-0.552,0-1,0.448-1,1v1
	c0,0.553,0.448,1,1,1h4v1.314c0,0.553,0.352,0.722,0.784,0.379l3.247-2.572C42.286,25.278,42.286,24.722,41.853,24.379z"/>
</svg>
