<?xml version="1.0" encoding="utf-8"?>
<!-- Generator: Adobe Illustrator 16.0.0, SVG Export Plug-In . SVG Version: 6.00 Build 0)  -->
<!DOCTYPE svg PUBLIC "-//W3C//DTD SVG 1.1//EN" "http://www.w3.org/Graphics/SVG/1.1/DTD/svg11.dtd">
<svg version="1.1" id="Ebene_1" xmlns="http://www.w3.org/2000/svg" xmlns:xlink="http://www.w3.org/1999/xlink" x="0px" y="0px"
	 width="100px" height="50px" viewBox="-25 0 100 50" enable-background="new -25 0 100 50" xml:space="preserve">
<rect x="25" fill="#00AB5D" width="50" height="50"/>
<rect x="-25" opacity="0.3" fill="#333333" enable-background="new    " width="50" height="50"/>
<path fill="#FFFFFF" d="M4.354,24.379l-3.248-2.573c-0.433-0.343-0.784-0.173-0.784,0.379V23.5h-4c-0.552,0-1,0.448-1,1v1
	c0,0.553,0.448,1,1,1h4v1.314c0,0.553,0.351,0.722,0.784,0.379l3.248-2.572C4.786,25.278,4.786,24.722,4.354,24.379z"/>
<path fill="#FFFFFF" d="M54.354,24.379l-3.248-2.573c-0.433-0.343-0.783-0.173-0.783,0.379V23.5h-4c-0.553,0-1,0.448-1,1v1
	c0,0.553,0.447,1,1,1h4v1.314c0,0.553,0.352,0.722,0.783,0.379l3.248-2.572C54.786,25.278,54.786,24.722,54.354,24.379z"/>
</svg>
