<?xml version="1.0" encoding="utf-8"?>
<!-- Generator: Adobe Illustrator 16.0.0, SVG Export Plug-In . SVG Version: 6.00 Build 0)  -->
<!DOCTYPE svg PUBLIC "-//W3C//DTD SVG 1.1//EN" "http://www.w3.org/Graphics/SVG/1.1/DTD/svg11.dtd">
<svg version="1.1" id="Ebene_1" xmlns="http://www.w3.org/2000/svg" xmlns:xlink="http://www.w3.org/1999/xlink" x="0px" y="0px"
	 width="50px" height="50px" viewBox="0 0 50 50" enable-background="new 0 0 50 50" xml:space="preserve">
<rect fill="#00AB5D" width="25" height="50"/>
<rect x="25" opacity="0.3" fill="#333333" enable-background="new    " width="25" height="50"/>
<path fill="#FFFFFF" d="M33.146,25.621l3.247,2.572c0.433,0.344,0.784,0.174,0.784-0.379V26.5h4c0.552,0,1-0.447,1-1v-1
	c0-0.553-0.447-1-1-1h-4v-1.314c0-0.553-0.352-0.722-0.783-0.379l-3.248,2.572C32.714,24.722,32.714,25.278,33.146,25.621z"/>
<path fill="#FFFFFF" d="M8.147,25.621l3.247,2.572c0.433,0.344,0.784,0.174,0.784-0.379V26.5h4c0.552,0,1-0.448,1-1v-1
	c0-0.553-0.448-1-1-1h-4v-1.314c0-0.553-0.352-0.722-0.784-0.379l-3.247,2.572C7.714,24.722,7.714,25.278,8.147,25.621z"/>
</svg>
